PathFileType	4	(X/Y/Z)	RBDS027\RBDS027runT35.trc
DataRate	CameraRate	NumFrames	NumMarkers	Units	OrigDataRate	OrigDataStartFrame	OrigNumFrames
150.000000	150.000000	4	33	mm	150.000000	2812	4500
Frame#	Time	L.ASIS			L.Heel.Bottom			L.Heel.Lateral			L.Heel.Top			L.Iliac.Crest			L.MT1			L.MT5			L.PSIS			L.Shank.Bottom.Lateral			L.Shank.Bottom.Medial			L.Shank.Top.Lateral			L.Shank.Top.Medial			L.Thigh.Bottom.Lateral			L.Thigh.Bottom.Medial			L.Thigh.Top.Lateral			L.Thigh.Top.Medial			R.ASIS			R.ASY			R.Heel.Bottom			R.Heel.Lateral			R.Heel.Top			R.Iliac.Crest			R.MT1			R.MT5			R.PSIS			R.Shank.Bottom.Lateral			R.Shank.Bottom.Medial			R.Shank.Top.Lateral			R.Shank.Top.Medial			R.Thigh.Bottom.Lateral			R.Thigh.Bottom.Medial			R.Thigh.Top.Lateral			R.Thigh.Top.Medial			
		X1	Y1	Z1	X2	Y2	Z2	X3	Y3	Z3	X4	Y4	Z4	X5	Y5	Z5	X6	Y6	Z6	X7	Y7	Z7	X8	Y8	Z8	X9	Y9	Z9	X10	Y10	Z10	X11	Y11	Z11	X12	Y12	Z12	X13	Y13	Z13	X14	Y14	Z14	X15	Y15	Z15	X16	Y16	Z16	X17	Y17	Z17	X18	Y18	Z18	X19	Y19	Z19	X20	Y20	Z20	X21	Y21	Z21	X22	Y22	Z22	X23	Y23	Z23	X24	Y24	Z24	X25	Y25	Z25	X26	Y26	Z26	X27	Y27	Z27	X28	Y28	Z28	X29	Y29	Z29	X30	Y30	Z30	X31	Y31	Z31	X32	Y32	Z32	X33	Y33	Z33	

2813	18.74666666666667	2207.148698138975	907.649198077985	843.1420000156966	2039.969852750628	152.5370041711634	918.4269100971007	2072.801627842618	155.8847677533734	870.8122141703484	2073.312416326517	190.3105965087184	915.9586378263707	2149.49790089396	992.2499479918622	810.9808422946031	2242.610487316219	70.5251235952299	944.9245274258041	2200.957572507069	78.03863097506442	839.8068523426497	2049.43104809919	944.6063275667484	923.1837776400658	2155.446094736164	238.1094355781068	851.0966482766778	2125.660670848544	254.2514013780979	895.7214628019448	2173.640646123214	315.9298329976474	837.5588742167354	2148.967085014429	331.0834118618762	883.3982534419347	2281.293248886759	591.7138768065522	794.6396996390545	2231.890118003779	558.073974514896	833.534205394582	2209.732046863819	674.4915290970498	780.239749767088	2162.885908547447	643.2938399283116	818.7259798424457	2210.34266987875	890.2740899001665	1101.331681096201	1752.161406487146	104.5513144210969	1032.116562307334	1616.118090340108	227.1132465214529	986.4446155792239	1635.148944434283	210.3067202221662	1035.456283222094	1657.514503701643	242.102349351501	997.5526223194914	2190.299909777939	980.3983005146312	1118.077185602117	1738.187547375237	50.54111837878349	974.0834000638707	1694.254289059142	78.17884141379176	1080.027712174243	2055.920287166889	947.1355155277311	1022.372713285977	1722.864436687174	260.7751141742892	1061.560914469866	1711.816992061888	281.9036143180762	1016.483802717695	1760.534258410548	333.2803311581605	1084.639517848369	1745.762549962702	352.4685537855317	1036.981483687712	1971.873269796742	582.3783655500785	1127.642297434363	1929.436494502134	605.8684073265398	1072.833383959019	2005.311532026504	686.0163955152996	1141.118037730777	1966.930517134339	708.110671428722	1086.855587783462	
2814	18.75333333333333	2208.246387177596	910.3607793899753	843.0975438123918	2066.502985178005	130.5077896967843	920.1063829851884	2098.736023877661	136.3942933040398	872.4225791641572	2096.268812714803	171.035393224033	917.2801039626008	2150.127776129258	995.4972416104911	811.0438008164761	2275.50871181108	67.27977479426805	946.9251732948484	2233.182283703698	70.15557084339042	841.8289883133599	2051.419875445633	948.3565113789127	924.0079433197369	2173.849462018048	226.2135843350889	852.1444311137255	2143.381548603003	240.0410151311465	896.9925894479363	2185.844437713078	305.0852677377655	838.0699704430605	2160.410752142173	318.3573481965824	884.1467502552089	2280.015055507196	593.0492008082435	795.6101839606033	2230.056520608656	559.5767324196866	833.9411252947197	2209.268998360112	676.5352858789691	781.0803585799093	2161.991024360836	645.6399222882017	819.249650058305	2212.506478716518	891.7423975771341	1100.96596521615	1738.909162563638	111.4175808215366	1034.668618995834	1610.150884635432	241.0292215443055	986.3628695442585	1627.126544033562	223.0470780160274	1035.699890999506	1652.085672834162	253.7984288563615	998.5825785138327	2194.63185730097	983.133886666871	1117.45294997509	1723.545749146554	57.77284938530923	976.2588767527379	1678.373423147308	87.04677110834315	1080.760925657538	2058.534030351374	951.2284940351839	1023.335108684854	1714.469858963994	269.97436874736	1063.066693152732	1704.340803358836	290.2411369480038	1017.277621652008	1752.619021310285	342.5386904022577	1085.315648493949	1738.514285084694	360.9801180629775	1037.100194156646	1967.22766860718	589.0794596321228	1127.652656886306	1926.168859237691	612.957619137738	1071.921104890643	2002.830194291176	692.109626382967	1140.467807347484	1965.945153998658	714.4687320580575	1085.239825816292	
2815	18.76	2209.046559261373	912.4003309051008	843.1095749442918	2094.156866990874	110.1082280913136	921.8225513797403	2125.638350676984	118.4580954806996	874.0591692338967	2120.110908031974	153.0272581325736	918.5800911708667	2150.508697487524	997.9587889539514	811.1790708088233	2307.748858484288	66.19153902762078	948.8982589707859	2265.316582437952	64.38969153818574	843.8391498483861	2053.137165315811	951.5880671845073	924.9102923551741	2192.513268920462	215.271390933283	853.1001540779703	2161.488381697694	226.7748368688681	898.1114394887685	2198.243530417597	294.6381957947963	838.4413946331234	2172.141725383055	306.0552880887189	884.6944753948598	2277.6363427714	593.2514633276533	796.5926333696	2227.25224111812	560.1576932820868	834.6684062772042	2207.832353747765	677.5338465162976	782.0332695271876	2160.239076058994	647.1496686541997	820.1508633032054	2214.379445490921	893.0123542148176	1100.687572416876	1725.902164761421	119.1191181981293	1037.155564760914	1604.04193316348	254.4455942465588	986.1841657152122	1619.040451318287	235.669927186881	1035.876870902286	1646.306796264516	265.2522692986819	999.4350078553422	2198.467115924125	985.378044762241	1116.878704782207	1709.439213795641	65.72349863889303	978.5963005130944	1663.120605769489	96.77725886790233	1081.644285534006	2060.903671197962	954.9196400979625	1024.317790841723	1706.350626587079	279.2391362340315	1064.457336705058	1697.006404582176	298.8749308140442	1018.15773220373	1745.382632720111	351.5791455573395	1086.022034186979	1731.836342032292	369.5150602520677	1037.418545487154	1963.678367446049	594.8023554132558	1127.439338749735	1923.683525090212	619.0023222266487	1071.061939690178	2001.110470234046	697.2634793380315	1139.718197709025	1965.346239438222	719.8649482962777	1083.82921209619	
2816	18.76666666666667	2209.560020024604	913.8146461242974	843.1937158059569	2122.56872920765	91.59704406775759	923.5361180828477	2153.168393382874	102.3017559665449	875.6846083503372	2144.520278914169	136.5242795212479	919.8148667550844	2150.635460577037	999.658087103547	811.3995613630652	2338.926475761266	67.308728381954	950.8327568214395	2296.97344372401	60.82306631072165	845.8249230810924	2054.543009071636	954.2685341207689	925.8439887972785	2211.204084554302	205.4587401874803	853.9523411758888	2179.72403373588	214.6531790878176	899.0644118725768	2210.684955345172	284.7747762846336	838.6995177187473	2184.001812545806	294.3814365230305	885.0672726757736	2274.188659167751	592.3740625347906	797.5086504951428	2223.544259525132	559.8955719417855	835.6843295684095	2205.439665205409	677.5213546673161	783.0026469769188	2157.668978911558	647.8576410762646	821.3536907518824	2215.950136332108	894.1139897192375	1100.486594113203	1713.156342603166	127.5823733971724	1039.501266717992	1597.585491304016	267.4099543900236	985.9765409626184	1610.805110427841	248.1946199275184	1036.035065947325	1640.034146720371	276.5254471621823	1000.103040394439	2201.725043002104	987.1784674129782	1116.343828652189	1695.754928966009	74.30735948402651	981.0102045428522	1648.561756815059	107.2743646917412	1082.701923436413	2062.974202637673	958.1442632112888	1025.28392595527	1698.481581470391	288.5729566218384	1065.710047061923	1689.79172851046	307.8446485492304	1019.103985431326	1738.806399594192	360.3723650961962	1086.761009686648	1725.724325234099	378.0742184626801	1037.938712276091	1961.292755563948	599.4163059445237	1127.071725263236	1922.016689154005	623.9280184089665	1070.345820460281	2000.234253568626	701.3637206022844	1138.984281185577	1965.165279535993	724.2422715557525	1082.771501323152	
